<svg version="1" xmlns="http://www.w3.org/2000/svg" width="256" height="256" viewBox="0 0 192.000000 192.000000"><path d="M80.9 48.5c-21.7 4.3-44.7 20.2-52 36-9.2 19.6-.5 37.5 18.2 37.5 18 0 43.3-21.5 45.6-38.8 1.3-10-3.5-14.7-14.6-14-16.3.9-34.1 17-34.3 30.8 0 5.6 2 9.6 5.5 10.9 3.6 1.4 4.1 0 .8-2-2.6-1.6-3.1-2.5-3.1-5.7 0-8.6 12.1-24.1 23.1-29.6 5.6-2.7 13.4-3.5 16.9-1.6 2.5 1.4 4.3 7.4 3.5 11.8-2 10.8-14.8 25.3-28.1 31.9-6.6 3.2-8.6 3.7-14.8 3.8-12.1 0-18.6-5.7-18.6-16.6 0-11.5 7.8-24.5 21.4-36 20.3-17.2 50.4-22.9 71-13.4 8.5 3.9 8.5 3.4-.5 12.1-10.8 10.5-17.7 19.2-31.8 40.3-13.8 20.5-21.5 28.5-31.8 33.3-7.7 3.7-17 4.8-24.2 2.8-5.5-1.4-10.8-6.4-11.6-11-.7-3.4-.6-3.5 1-1.3 2 2.8 4.6 2.9 6.9.4 2.1-2.3 1.8-7-.5-8.4-2.7-1.7-6.8.1-8.6 3.7-3.2 6.9 1.2 14.7 10.3 18.2 6.9 2.6 19.8 1.5 30.3-2.6 10.9-4.2 22.4-12.1 28.1-19.2 2.6-3.2 7.9-12.1 11.9-20 4.1-7.9 9.8-18 12.8-22.5 5.6-8.5 15.1-19.3 17-19.3 1.8 0 5.1 6.1 5.9 10.6 1.3 8.2-4.1 18.6-11.6 22.4-3.5 1.8-5.1 2-11.7 1.4-6.2-.6-7.5-.5-7.1.7.3.9 2.4 1.5 6.5 1.7 5.7.3 6.2.5 7.3 3.2 1.1 2.5.8 4.3-1.9 13.1-3.7 12.2-4.1 20.1-1.1 25.9 3.7 7.2 11.1 10.4 18.6 8 4.7-1.5 6.6-2.9 5.8-4.2-.3-.5-1.7-.2-3.2.8-1.4.9-4.5 1.8-6.9 1.8-3.4.1-4.8-.5-7-2.7-3.6-3.5-3.5-8.7.1-20.6 3.4-11 3.4-16.7.1-21.5-3-4.4-3-4.6-.7-4.6 2.9 0 11.5-4.6 14.4-7.6 3-3.2 5.8-9.2 5.8-12.5 0-4.5-2.5-10.2-6.3-14.5l-3.9-4.4 5.7-2.6c6.8-3.1 16.7-5 21.6-4 11.2 2.1 17.8 14.9 13.8 26.5-1.2 3.4-.6 5.2 1.2 3.4.7-.7 1.4-4.3 1.7-8.2 1.6-22.2-17.1-30.6-41.1-18.4-4.5 2.2-5 2.3-7.3.9-10.1-6.7-31.8-9.4-48.5-6.1z"/></svg>